<svg width="900" height="675" viewBox="0 0 900 675" fill="none" xmlns="http://www.w3.org/2000/svg">
  <rect width="900" height="675" fill="url(#bg)"/>
  <rect x="250" y="48" width="400" height="579" rx="44" fill="#0C1820" stroke="#233C32" stroke-width="6"/>
  <rect x="278" y="88" width="344" height="497" rx="28" fill="#E8F7EF"/>
  <rect x="388" y="66" width="124" height="12" rx="6" fill="#203C32"/>
  <rect x="278" y="88" width="344" height="78" rx="28" fill="#25D366"/>
  <text x="450" y="135" text-anchor="middle" fill="#F7FFF9" font-family="Arial, sans-serif" font-size="28" font-weight="700">WhatsApp</text>
  <text x="450" y="164" text-anchor="middle" fill="#D7FFE4" font-family="Arial, sans-serif" font-size="16">clientes chamando todos os dias</text>
  <rect x="306" y="196" width="198" height="44" rx="18" fill="#FFFFFF"/>
  <text x="326" y="223" fill="#23483A" font-family="Arial, sans-serif" font-size="16" font-weight="700">Ola! Quero orcamento</text>
  <rect x="413" y="252" width="180" height="44" rx="18" fill="#D9FDD3"/>
  <text x="432" y="279" fill="#1D5E3E" font-family="Arial, sans-serif" font-size="16" font-weight="700">Tem entrega hoje?</text>
  <rect x="304" y="310" width="219" height="44" rx="18" fill="#FFFFFF"/>
  <text x="324" y="337" fill="#23483A" font-family="Arial, sans-serif" font-size="16" font-weight="700">Preciso de moveis planejados</text>
  <rect x="379" y="368" width="214" height="44" rx="18" fill="#D9FDD3"/>
  <text x="399" y="395" fill="#1D5E3E" font-family="Arial, sans-serif" font-size="16" font-weight="700">Pode mandar o catalogo?</text>
  <rect x="305" y="426" width="175" height="44" rx="18" fill="#FFFFFF"/>
  <text x="325" y="453" fill="#23483A" font-family="Arial, sans-serif" font-size="16" font-weight="700">Fecha pedido hoje?</text>
  <rect x="431" y="484" width="162" height="44" rx="18" fill="#D9FDD3"/>
  <text x="451" y="511" fill="#1D5E3E" font-family="Arial, sans-serif" font-size="16" font-weight="700">Vamos agendar!</text>
  <rect x="538" y="112" width="66" height="26" rx="13" fill="#128C7E"/>
  <text x="571" y="130" text-anchor="middle" fill="#F3FFF5" font-family="Arial, sans-serif" font-size="14" font-weight="700">+27</text>
  <circle cx="204" cy="128" r="38" fill="#25D366" fill-opacity="0.18"/>
  <circle cx="708" cy="548" r="52" fill="#25D366" fill-opacity="0.14"/>
  <circle cx="154" cy="566" r="18" fill="#F4C542" fill-opacity="0.7"/>
  <defs>
    <linearGradient id="bg" x1="450" y1="0" x2="450" y2="675" gradientUnits="userSpaceOnUse">
      <stop stop-color="#10392D"/>
      <stop offset="1" stop-color="#071C16"/>
    </linearGradient>
  </defs>
</svg>
