<svg width="900" height="675" viewBox="0 0 900 675" fill="none" xmlns="http://www.w3.org/2000/svg">
  <rect width="900" height="675" fill="url(#bg)"/>
  <rect x="250" y="48" width="400" height="579" rx="44" fill="#101826" stroke="#3A4760" stroke-width="6"/>
  <rect x="278" y="88" width="344" height="497" rx="28" fill="#F3F6FB"/>
  <rect x="388" y="66" width="124" height="12" rx="6" fill="#263043"/>
  <rect x="278" y="88" width="344" height="76" rx="28" fill="#E7ECF4"/>
  <text x="450" y="134" text-anchor="middle" fill="#1D273A" font-family="Arial, sans-serif" font-size="28" font-weight="700">WhatsApp</text>
  <text x="450" y="165" text-anchor="middle" fill="#66748F" font-family="Arial, sans-serif" font-size="16">sem mensagens novas</text>
  <circle cx="450" cy="310" r="88" fill="#E7ECF4"/>
  <path d="M450 253C473.748 253 493 272.252 493 296C493 319.748 473.748 339 450 339C442.713 339 435.851 337.195 429.83 334.012L405 341L412.111 317.167C408.793 311.029 407 303.994 407 296C407 272.252 426.252 253 450 253Z" fill="#CFD7E5"/>
  <path d="M434 288H466" stroke="#94A2BC" stroke-width="8" stroke-linecap="round"/>
  <path d="M434 304H466" stroke="#94A2BC" stroke-width="8" stroke-linecap="round"/>
  <path d="M434 320H454" stroke="#94A2BC" stroke-width="8" stroke-linecap="round"/>
  <rect x="320" y="394" width="260" height="52" rx="18" fill="#E7ECF4"/>
  <text x="450" y="426" text-anchor="middle" fill="#6D7892" font-family="Arial, sans-serif" font-size="22" font-weight="700">Nenhuma mensagem nova</text>
  <text x="450" y="462" text-anchor="middle" fill="#8D98AE" font-family="Arial, sans-serif" font-size="17">o WhatsApp esta parado</text>
  <rect x="322" y="504" width="256" height="18" rx="9" fill="#D4DBE8"/>
  <rect x="356" y="540" width="188" height="18" rx="9" fill="#DCE2ED"/>
  <rect x="568" y="112" width="36" height="24" rx="12" fill="#B7C2D6"/>
  <text x="586" y="129" text-anchor="middle" fill="#F7FAFF" font-family="Arial, sans-serif" font-size="14" font-weight="700">0</text>
  <defs>
    <linearGradient id="bg" x1="450" y1="0" x2="450" y2="675" gradientUnits="userSpaceOnUse">
      <stop stop-color="#253248"/>
      <stop offset="1" stop-color="#131A27"/>
    </linearGradient>
  </defs>
</svg>
