<svg width="520" height="760" viewBox="0 0 520 760" fill="none" xmlns="http://www.w3.org/2000/svg">
  <ellipse cx="262" cy="742" rx="122" ry="18" fill="#0F1C35" fill-opacity="0.08"/>
  <path d="M206 173C206 126.608 243.608 89 290 89C336.392 89 374 126.608 374 173V221H206V173Z" fill="#E5B99E"/>
  <path d="M177 257C177 218.892 207.892 188 246 188H334C372.108 188 403 218.892 403 257V325H177V257Z" fill="#F3F7FC"/>
  <path d="M219 142C219 100.026 253.026 66 295 66C336.974 66 371 100.026 371 142V204H219V142Z" fill="#1E2B47"/>
  <path d="M220 210C220 168.026 254.026 134 296 134C337.974 134 372 168.026 372 210V226H220V210Z" fill="#E5B99E"/>
  <path d="M244 100C257.333 86.6667 280.6 72.1 314.5 84.5C348.4 96.9 355.625 125 356 137L357 158C342.333 148.667 308.4 133.9 290 147.5C271.6 161.1 239 162.833 225 162.5V145C225 132.833 230.667 113.333 244 100Z" fill="#1A2640"/>
  <path d="M289 237C318.823 237 343 212.823 343 183V157H235V183C235 212.823 259.177 237 289 237Z" fill="#E9BEA3"/>
  <path d="M264 176C264 171.582 267.582 168 272 168H276C280.418 168 284 171.582 284 176V178C284 182.418 280.418 186 276 186H272C267.582 186 264 182.418 264 178V176Z" fill="#1A2640"/>
  <path d="M302 176C302 171.582 305.582 168 310 168H314C318.418 168 322 171.582 322 176V178C322 182.418 318.418 186 314 186H310C305.582 186 302 182.418 302 178V176Z" fill="#1A2640"/>
  <path d="M286 198C291.333 201.333 299.667 201.333 305 198" stroke="#8A543E" stroke-width="4.5" stroke-linecap="round"/>
  <path d="M245 251L287 286L331 251L360 304L331 401L287 424L241 401L214 304L245 251Z" fill="#14233F"/>
  <path d="M275 250L288 287L300 250H275Z" fill="#FFFFFF"/>
  <path d="M271 249H304L297 286H278L271 249Z" fill="#D7DEE8"/>
  <path d="M259 296L286 425L209 473L171 375L259 296Z" fill="#162747"/>
  <path d="M319 296L369 375L335 473L288 425L319 296Z" fill="#162747"/>
  <path d="M180 373C196.119 340.221 235.761 327.932 267 344L322 372L288 439L226 417C191.081 404.58 164.242 383.768 180 373Z" fill="#1B2C4E"/>
  <path d="M388 368C373.616 334.176 333.416 318.9 301 334L248 360L278 429L344 412C379.371 402.898 403.421 379.242 388 368Z" fill="#1B2C4E"/>
  <path d="M215 451L183 596H252L269 471L215 451Z" fill="#0F1C35"/>
  <path d="M318 451L345 596H410L373 452L318 451Z" fill="#0F1C35"/>
  <path d="M250 595L243 729H317L284 595H250Z" fill="#121F39"/>
  <path d="M287 595L338 729H402L343 595H287Z" fill="#121F39"/>
  <path d="M240 729H330C330 744.464 317.464 757 302 757H268C252.536 757 240 744.464 240 729Z" fill="#1E2B47"/>
  <path d="M330 729H417C417 744.464 404.464 757 389 757H358C342.536 757 330 744.464 330 729Z" fill="#1E2B47"/>
  <path d="M182 375C196 367.5 216.5 365 233 372L319 410C331 415.5 335 431 328 443C321.5 454.143 307.732 458.45 296 452L197 398C185 391.5 176.5 383 182 375Z" fill="#1F3155"/>
  <path d="M383 370C370.5 363.5 350.5 362 335 368L248 403C235.5 408 230.5 422 236 434.5C241.176 446.263 254.669 452.168 266.5 448L369 412C381.5 407.5 392 397.5 383 370Z" fill="#1F3155"/>
  <path d="M199 383C211.667 381.333 239.5 380.5 251.5 388.5C263.5 396.5 260 407.833 255.5 412.5L205.5 399.5L199 383Z" fill="#E8BEA3"/>
  <path d="M373 381C360.333 379.333 332.5 378.5 320.5 386.5C308.5 394.5 312 405.833 316.5 410.5L366.5 397.5L373 381Z" fill="#E8BEA3"/>
  <path d="M252 246L288 279L324 246" stroke="#D1A93B" stroke-width="5" stroke-linecap="round" stroke-linejoin="round"/>
  <path d="M288 279L269 333L288 424L307 333L288 279Z" fill="#D1A93B"/>
  <path d="M229 234L251 249L238 274L214 304L195 273L229 234Z" fill="#233B67"/>
  <path d="M349 234L325 249L338 274L360 304L383 272L349 234Z" fill="#233B67"/>
</svg>
